<svg width="23" height="20" viewBox="0 0 23 20" fill="none" xmlns="http://www.w3.org/2000/svg">
<path fill-rule="evenodd" clip-rule="evenodd" d="M10.75 1.03505L10.6634 1.00254C7.99 -0.000684477 5.01 -0.000684775 2.33663 1.00254C1.40173 1.35338 0.75 2.22219 0.75 3.22919V17.0799C0.75 18.5948 2.33232 19.4933 3.66836 18.9919C5.48537 18.3101 7.51463 18.3101 9.33164 18.9919L10.75 19.5242V1.03505ZM12.25 19.5242L13.6684 18.9919C15.4854 18.3101 17.5146 18.3101 19.3316 18.9919C20.6677 19.4933 22.25 18.5948 22.25 17.0799V3.22919C22.25 2.22219 21.5983 1.35338 20.6634 1.00254C17.99 -0.000684775 15.01 -0.000684477 12.3366 1.00254L12.25 1.03505V19.5242Z" fill="white"/>
</svg>
