<svg width="24" height="24" viewBox="0 0 24 24" fill="none" xmlns="http://www.w3.org/2000/svg">
<path fill-rule="evenodd" clip-rule="evenodd" d="M3.25 6C3.25 3.37665 5.37665 1.25 8 1.25H16C18.6234 1.25 20.75 3.37665 20.75 6V18C20.75 20.6234 18.6234 22.75 16 22.75H8C5.37665 22.75 3.25 20.6234 3.25 18V6ZM8 6.25C7.58579 6.25 7.25 6.58579 7.25 7C7.25 7.41421 7.58579 7.75 8 7.75H16C16.4142 7.75 16.75 7.41421 16.75 7C16.75 6.58579 16.4142 6.25 16 6.25H8ZM7.25 12C7.25 11.5858 7.58579 11.25 8 11.25H16C16.4142 11.25 16.75 11.5858 16.75 12C16.75 12.4142 16.4142 12.75 16 12.75H8C7.58579 12.75 7.25 12.4142 7.25 12ZM8 16.25C7.58579 16.25 7.25 16.5858 7.25 17C7.25 17.4142 7.58579 17.75 8 17.75H12C12.4142 17.75 12.75 17.4142 12.75 17C12.75 16.5858 12.4142 16.25 12 16.25H8Z" fill="white"/>
</svg>
